<?xml version="1.0"?>
<svg xmlns="http://www.w3.org/2000/svg" xmlns:xlink="http://www.w3.org/1999/xlink" xmlns:svgjs="http://svgjs.com/svgjs" version="1.1" width="512" height="512" x="0" y="0" viewBox="0 0 512.001 512.001" style="enable-background:new 0 0 512 512" xml:space="preserve" class=""><g><g xmlns="http://www.w3.org/2000/svg"><path d="m325.571 0c-102.8 0-186.43 83.63-186.43 186.42 0 44.88 15.86 87.19 44.43 120.8l-29.42 29.43-10.61-10.62c-5.86-5.85-15.36-5.85-21.21 0l-117.94 117.94c-5.85 5.85-5.86 15.35 0 21.21l42.43 42.43c5.86 5.85 15.35 5.86 21.21 0l117.93-117.94c5.86-5.85 5.86-15.35 0-21.21l-10.6-10.6 29.42-29.43c33.69 28.64 76.03 44.43 120.79 44.43 102.8 0 186.43-83.63 186.43-186.44 0-102.79-83.63-186.42-186.43-186.42zm0 90c-53.17 0-96.43 43.26-96.43 96.43 0 8.28-6.72 15-15 15-8.29 0-15-6.72-15-15 0-69.71 56.72-126.43 126.43-126.43 8.28 0 15 6.72 15 15s-6.72 15-15 15z" fill="#ffffff" data-original="#000000" style="" class=""/></g></g></svg>
